<?xml version="1.0" encoding="UTF-8"?>
<svg width="24" height="24" viewBox="0 0 24 24" fill="none" xmlns="http://www.w3.org/2000/svg">
    <path d="M15.684 2H8.316C3.726 2 2 3.726 2 8.316V15.684C2 20.274 3.726 22 8.316 22H15.684C20.274 22 22 20.274 22 15.684V8.316C22 3.726 20.274 2 15.684 2ZM18.4 16.437H16.92C16.29 16.437 16.11 15.937 15.03 14.857C14.07 13.927 13.71 13.797 13.47 13.797C13.14 13.797 13.05 13.887 13.05 14.337V15.837C13.05 16.227 12.93 16.437 11.82 16.437C10.2881 16.437 8.81754 15.8674 7.63961 14.8442C6.46167 13.8211 5.63627 12.4014 5.28 10.827C5.28 10.587 5.37 10.377 5.85 10.377H7.32C7.74 10.377 7.89 10.557 8.04 10.977C8.79 12.957 10.05 14.697 10.53 14.697C10.74 14.697 10.83 14.607 10.83 14.097V11.757C10.77 10.767 10.23 10.677 10.23 10.287C10.23 10.137 10.35 9.987 10.56 9.987H12.99C13.35 9.987 13.47 10.137 13.47 10.527V13.527C13.47 13.887 13.62 14.007 13.71 14.007C13.92 14.007 14.1 13.887 14.43 13.557C15.51 12.357 16.29 10.557 16.29 10.557C16.38 10.347 16.56 10.167 16.98 10.167H18.45C18.93 10.167 19.02 10.377 18.93 10.737C18.63 11.757 16.77 14.427 16.77 14.427C16.62 14.697 16.56 14.817 16.77 15.087C16.92 15.297 17.43 15.747 17.76 16.137C18.36 16.797 18.84 17.367 18.99 17.757C19.17 18.147 18.93 18.357 18.48 18.357H16.98C16.4093 18.3505 15.8561 18.1831 15.39 17.877C14.97 17.607 14.55 17.247 14.13 16.887C14.01 16.767 13.86 16.707 13.71 16.707C13.5 16.7258 13.3029 16.8251 13.17 16.977V17.757C13.17 18.147 13.02 18.357 11.82 18.357L11.85 16.437H18.4Z" fill="currentColor"/>
</svg> 